# xmcd CD database file
#
# Track frame offsets:
#	183
#	33530
#	65158
#	96740
#	130410
#	156618
#	185450
#	223270
#	248963
#
# Disc length: 3865 seconds
#
# Revision: 0
# Processed by: cddbd v1.5.1PL2 Copyright (c) Steve Scherf et al.
# Submitted via: CDex 1.51
#
DISCID=970f1709
DTITLE=Andy Laverne - Standard Eyes
DYEAR=1991
DGENRE=Jazz
TTITLE0=Autumn Leaves
TTITLE1=When You Wish Upon A Star
TTITLE2=There'll Never Be Another You
TTITLE3=Just One Of Those Things
TTITLE4=You're My Everything
TTITLE5=Laura
TTITLE6=Stella By Starlight
TTITLE7=Someday My Prince Will Come
TTITLE8=On Green Dolphin Street
EXTD=YEAR: 1991
EXTT0=
EXTT1=
EXTT2=
EXTT3=
EXTT4=
EXTT5=
EXTT6=
EXTT7=
EXTT8=
PLAYORDER=
